<svg xmlns="http://www.w3.org/2000/svg" viewBox="0 0 100 100" width="100" height="100">
  <circle cx="50" cy="50" r="45" fill="#cccccc" />
  <path d="M50 25C40.16 25 32 33.16 32 43C32 52.84 40.16 61 50 61C59.84 61 68 52.84 68 43C68 33.16 59.84 25 50 25ZM50 53C44.48 53 40 48.52 40 43C40 37.48 44.48 33 50 33C55.52 33 60 37.48 60 43C60 48.52 55.52 53 50 53Z" fill="#999999"/>
  <path d="M25.0996 84.3203C25.8996 75.8303 33.0796 69.0003 42.5096 69.0003H57.5096C66.9396 69.0003 74.1196 75.8303 74.9196 84.3203C70.6096 87.9003 64.1896 90.0003 57.5096 90.0003H42.5096C35.8296 90.0003 29.4096 87.9003 25.0996 84.3203Z" fill="#999999"/>
</svg>